<?xml version="1.0" encoding="UTF-8"?><svg xmlns="http://www.w3.org/2000/svg" xmlns:xlink="http://www.w3.org/1999/xlink" fill-opacity="1" color-rendering="auto" color-interpolation="auto" text-rendering="auto" stroke="black" stroke-linecap="square" width="1097" stroke-miterlimit="10" shape-rendering="auto" stroke-opacity="1" fill="black" stroke-dasharray="none" font-weight="normal" stroke-width="1" height="488" font-family="'Dialog'" font-style="normal" stroke-linejoin="miter" font-size="12px" stroke-dashoffset="0" image-rendering="auto">
  <!--Generated by ySVG 2.6-->
  <defs id="genericDefs"/>
  <g>
    <defs id="defs1">
      <clipPath clipPathUnits="userSpaceOnUse" id="clipPath1">
        <path d="M0 0 L1097 0 L1097 488 L0 488 L0 0 Z"/>
      </clipPath>
      <clipPath clipPathUnits="userSpaceOnUse" id="clipPath2">
        <path d="M25 171 L1122 171 L1122 659 L25 659 L25 171 Z"/>
      </clipPath>
    </defs>
    <g fill="white" text-rendering="geometricPrecision" shape-rendering="geometricPrecision" transform="translate(-25,-171)" stroke="white">
      <rect x="25" width="1097" height="488" y="171" clip-path="url(#clipPath2)" stroke="none"/>
    </g>
    <g stroke-linecap="butt" transform="matrix(1,0,0,1,-25,-171)" fill="navy" text-rendering="geometricPrecision" shape-rendering="geometricPrecision" stroke="navy" stroke-width="4" stroke-miterlimit="1.45">
      <rect x="418.3031" y="246.2132" clip-path="url(#clipPath2)" fill="none" width="688.6969" rx="4" ry="4" height="397"/>
    </g>
    <g font-size="14px" stroke-linecap="butt" transform="matrix(1,0,0,1,-25,-171)" text-rendering="geometricPrecision" font-family="sans-serif" shape-rendering="geometricPrecision" font-weight="bold" stroke-miterlimit="1.45">
      <text x="661.7155" xml:space="preserve" y="237.2601" clip-path="url(#clipPath2)" stroke="none">PyTorch-Lightnign Training</text>
    </g>
    <g fill="rgb(250,229,208)" text-rendering="geometricPrecision" shape-rendering="geometricPrecision" transform="matrix(1,0,0,1,-25,-171)" stroke="rgb(250,229,208)">
      <rect x="69" y="286.5" clip-path="url(#clipPath2)" width="567" rx="4" ry="4" height="247.9487" stroke="none"/>
    </g>
    <g stroke-linecap="butt" transform="matrix(1,0,0,1,-25,-171)" fill="rgb(255,153,0)" text-rendering="geometricPrecision" shape-rendering="geometricPrecision" stroke="rgb(255,153,0)" stroke-width="4" stroke-miterlimit="1.45">
      <rect x="69" y="286.5" clip-path="url(#clipPath2)" fill="none" width="567" rx="4" ry="4" height="247.9487"/>
    </g>
    <g font-size="14px" stroke-linecap="butt" transform="matrix(1,0,0,1,-25,-171)" text-rendering="geometricPrecision" font-family="sans-serif" shape-rendering="geometricPrecision" font-weight="bold" stroke-miterlimit="1.45">
      <text x="323.8335" xml:space="preserve" y="277.5469" clip-path="url(#clipPath2)" stroke="none">Adapter</text>
    </g>
    <g fill="rgb(249,169,169)" text-rendering="geometricPrecision" shape-rendering="geometricPrecision" transform="matrix(1,0,0,1,-25,-171)" stroke="rgb(249,169,169)">
      <rect x="694" y="286.5" clip-path="url(#clipPath2)" width="359.0908" rx="4" ry="4" height="196" stroke="none"/>
    </g>
    <g stroke-linecap="butt" transform="matrix(1,0,0,1,-25,-171)" fill="red" text-rendering="geometricPrecision" shape-rendering="geometricPrecision" stroke="red" stroke-width="4" stroke-miterlimit="1.45">
      <rect x="694" y="286.5" clip-path="url(#clipPath2)" fill="none" width="359.0908" rx="4" ry="4" height="196"/>
    </g>
    <g font-size="14px" stroke-linecap="butt" transform="matrix(1,0,0,1,-25,-171)" text-rendering="geometricPrecision" font-family="sans-serif" shape-rendering="geometricPrecision" font-weight="bold" stroke-miterlimit="1.45">
      <text x="844.9849" xml:space="preserve" y="277.5469" clip-path="url(#clipPath2)" stroke="none">Pipeline</text>
    </g>
    <g fill="rgb(255,195,242)" text-rendering="geometricPrecision" shape-rendering="geometricPrecision" transform="matrix(1,0,0,1,-25,-171)" stroke="rgb(255,195,242)">
      <rect x="99.3998" y="324" clip-path="url(#clipPath2)" width="32" rx="4" ry="4" height="121" stroke="none"/>
    </g>
    <g stroke-linecap="butt" transform="matrix(1,0,0,1,-25,-171)" fill="fuchsia" text-rendering="geometricPrecision" shape-rendering="geometricPrecision" stroke="fuchsia" stroke-width="4" stroke-miterlimit="1.45">
      <rect x="99.3998" y="324" clip-path="url(#clipPath2)" fill="none" width="32" rx="4" ry="4" height="121"/>
    </g>
    <g fill="rgb(255,195,242)" text-rendering="geometricPrecision" shape-rendering="geometricPrecision" transform="matrix(1,0,0,1,-25,-171)" stroke="rgb(255,195,242)">
      <rect x="145.3998" y="324" clip-path="url(#clipPath2)" width="32" rx="4" ry="4" height="121" stroke="none"/>
    </g>
    <g stroke-linecap="butt" transform="matrix(1,0,0,1,-25,-171)" fill="fuchsia" text-rendering="geometricPrecision" shape-rendering="geometricPrecision" stroke="fuchsia" stroke-width="4" stroke-miterlimit="1.45">
      <rect x="145.3998" y="324" clip-path="url(#clipPath2)" fill="none" width="32" rx="4" ry="4" height="121"/>
    </g>
    <g font-size="14px" stroke-linecap="butt" transform="matrix(1,0,0,1,-25,-171)" text-rendering="geometricPrecision" font-family="sans-serif" shape-rendering="geometricPrecision" font-weight="bold" stroke-miterlimit="1.45">
      <text x="106.0526" xml:space="preserve" y="315.0469" clip-path="url(#clipPath2)" stroke="none">Pre-Processors</text>
    </g>
    <g fill="rgb(255,195,242)" text-rendering="geometricPrecision" shape-rendering="geometricPrecision" transform="matrix(1,0,0,1,-25,-171)" stroke="rgb(255,195,242)">
      <rect x="191.3998" y="324" clip-path="url(#clipPath2)" width="32" rx="4" ry="4" height="121" stroke="none"/>
    </g>
    <g stroke-linecap="butt" transform="matrix(1,0,0,1,-25,-171)" fill="fuchsia" text-rendering="geometricPrecision" shape-rendering="geometricPrecision" stroke="fuchsia" stroke-width="4" stroke-miterlimit="1.45">
      <rect x="191.3998" y="324" clip-path="url(#clipPath2)" fill="none" width="32" rx="4" ry="4" height="121"/>
    </g>
    <g fill="rgb(255,204,0)" text-rendering="geometricPrecision" shape-rendering="geometricPrecision" transform="matrix(1,0,0,1,-25,-171)" stroke="rgb(255,204,0)">
      <rect x="115.1126" width="165.7749" height="50.4145" y="186" clip-path="url(#clipPath2)" stroke="none"/>
    </g>
    <g text-rendering="geometricPrecision" stroke-miterlimit="1.45" shape-rendering="geometricPrecision" transform="matrix(1,0,0,1,-25,-171)" stroke-linecap="butt">
      <rect fill="none" x="115.1126" width="165.7749" height="50.4145" y="186" clip-path="url(#clipPath2)"/>
      <text x="149.188" font-size="14px" y="216.4983" clip-path="url(#clipPath2)" font-family="sans-serif" stroke="none" font-weight="bold" xml:space="preserve">Input Dataset</text>
    </g>
    <g fill="rgb(250,251,208)" text-rendering="geometricPrecision" shape-rendering="geometricPrecision" transform="matrix(1,0,0,1,-25,-171)" stroke="rgb(250,251,208)">
      <rect x="284.5203" y="324" clip-path="url(#clipPath2)" width="96.9862" rx="4" ry="4" height="121" stroke="none"/>
    </g>
    <g stroke-linecap="butt" transform="matrix(1,0,0,1,-25,-171)" fill="yellow" text-rendering="geometricPrecision" shape-rendering="geometricPrecision" stroke="yellow" stroke-width="4" stroke-miterlimit="1.45">
      <rect x="284.5203" y="324" clip-path="url(#clipPath2)" fill="none" width="96.9862" rx="4" ry="4" height="121"/>
    </g>
    <g font-size="14px" stroke-linecap="butt" transform="matrix(1,0,0,1,-25,-171)" text-rendering="geometricPrecision" font-family="sans-serif" shape-rendering="geometricPrecision" font-weight="bold" stroke-miterlimit="1.45">
      <text x="283.47" xml:space="preserve" y="315.0469" clip-path="url(#clipPath2)" stroke="none">ArrowDataset</text>
    </g>
    <g fill="rgb(191,250,255)" text-rendering="geometricPrecision" shape-rendering="geometricPrecision" transform="matrix(1,0,0,1,-25,-171)" stroke="rgb(191,250,255)">
      <rect x="442.6271" y="324.4126" clip-path="url(#clipPath2)" width="165.7749" rx="4" ry="4" height="121" stroke="none"/>
    </g>
    <g stroke-linecap="butt" transform="matrix(1,0,0,1,-25,-171)" fill="aqua" text-rendering="geometricPrecision" shape-rendering="geometricPrecision" stroke="aqua" stroke-width="4" stroke-miterlimit="1.45">
      <rect x="442.6271" y="324.4126" clip-path="url(#clipPath2)" fill="none" width="165.7749" rx="4" ry="4" height="121"/>
    </g>
    <g font-size="14px" stroke-linecap="butt" transform="matrix(1,0,0,1,-25,-171)" text-rendering="geometricPrecision" font-family="sans-serif" shape-rendering="geometricPrecision" font-weight="bold" stroke-miterlimit="1.45">
      <text x="484.3177" xml:space="preserve" y="315.4595" clip-path="url(#clipPath2)" stroke="none">DataLoader</text>
    </g>
    <g fill="silver" text-rendering="geometricPrecision" shape-rendering="geometricPrecision" transform="matrix(1,0,0,1,-25,-171)" stroke="silver">
      <rect x="694" y="512.5" clip-path="url(#clipPath2)" width="359.0908" rx="4" ry="4" height="106.2705" stroke="none"/>
    </g>
    <g stroke-linecap="butt" transform="matrix(1,0,0,1,-25,-171)" fill="gray" text-rendering="geometricPrecision" shape-rendering="geometricPrecision" stroke="gray" stroke-width="4" stroke-miterlimit="1.45">
      <rect x="694" y="512.5" clip-path="url(#clipPath2)" fill="none" width="359.0908" rx="4" ry="4" height="106.2705"/>
    </g>
    <g font-size="14px" stroke-linecap="butt" transform="matrix(1,0,0,1,-25,-171)" text-rendering="geometricPrecision" font-family="sans-serif" shape-rendering="geometricPrecision" font-weight="bold" stroke-miterlimit="1.45">
      <text x="838.7095" xml:space="preserve" y="570.9263" clip-path="url(#clipPath2)" stroke="none">Hardware</text>
    </g>
    <g fill="rgb(208,255,208)" text-rendering="geometricPrecision" shape-rendering="geometricPrecision" transform="matrix(1,0,0,1,-25,-171)" stroke="rgb(208,255,208)">
      <rect x="509.5145" y="363.0647" clip-path="url(#clipPath2)" width="32" rx="4" ry="4" height="61.4058" stroke="none"/>
    </g>
    <g stroke-linecap="butt" transform="matrix(1,0,0,1,-25,-171)" fill="lime" text-rendering="geometricPrecision" shape-rendering="geometricPrecision" stroke="lime" stroke-width="4" stroke-miterlimit="1.45">
      <rect x="509.5145" y="363.0647" clip-path="url(#clipPath2)" fill="none" width="32" rx="4" ry="4" height="61.4058"/>
    </g>
    <g fill="rgb(208,255,208)" text-rendering="geometricPrecision" shape-rendering="geometricPrecision" transform="matrix(1,0,0,1,-25,-171)" stroke="rgb(208,255,208)">
      <rect x="555.5145" y="363.0647" clip-path="url(#clipPath2)" width="32" rx="4" ry="4" height="61.4058" stroke="none"/>
    </g>
    <g stroke-linecap="butt" transform="matrix(1,0,0,1,-25,-171)" fill="lime" text-rendering="geometricPrecision" shape-rendering="geometricPrecision" stroke="lime" stroke-width="4" stroke-miterlimit="1.45">
      <rect x="555.5145" y="363.0647" clip-path="url(#clipPath2)" fill="none" width="32" rx="4" ry="4" height="61.4058"/>
    </g>
    <g font-size="14px" stroke-linecap="butt" transform="matrix(1,0,0,1,-25,-171)" text-rendering="geometricPrecision" font-family="sans-serif" shape-rendering="geometricPrecision" font-weight="bold" stroke-miterlimit="1.45">
      <text x="496.1854" xml:space="preserve" y="347.597" clip-path="url(#clipPath2)" stroke="none">Post-Processors</text>
    </g>
    <g transform="matrix(1,0,0,1,-25,-171)" fill-opacity="0.3373" fill="rgb(128,0,128)" text-rendering="geometricPrecision" shape-rendering="geometricPrecision" stroke="rgb(128,0,128)" stroke-opacity="0.3373">
      <rect x="899.6396" y="308.9324" clip-path="url(#clipPath2)" width="125.3219" rx="4" ry="4" height="94.464" stroke="none"/>
    </g>
    <g stroke-linecap="butt" transform="matrix(1,0,0,1,-25,-171)" fill="purple" text-rendering="geometricPrecision" shape-rendering="geometricPrecision" stroke="purple" stroke-width="4" stroke-miterlimit="1.45">
      <rect x="899.6396" y="308.9324" clip-path="url(#clipPath2)" fill="none" width="125.3219" rx="4" ry="4" height="94.464"/>
    </g>
    <g font-size="14px" stroke-linecap="butt" transform="matrix(1,0,0,1,-25,-171)" text-rendering="geometricPrecision" font-family="sans-serif" shape-rendering="geometricPrecision" font-weight="bold" stroke-miterlimit="1.45">
      <text x="940.4597" xml:space="preserve" y="361.4554" clip-path="url(#clipPath2)" stroke="none">Model</text>
    </g>
    <g fill="rgb(177,195,249)" text-rendering="geometricPrecision" shape-rendering="geometricPrecision" transform="matrix(1,0,0,1,-25,-171)" stroke="rgb(177,195,249)">
      <rect x="728.2235" y="308.9324" clip-path="url(#clipPath2)" width="125.3219" rx="4" ry="4" height="94.464" stroke="none"/>
    </g>
    <g stroke-linecap="butt" transform="matrix(1,0,0,1,-25,-171)" fill="rgb(51,102,255)" text-rendering="geometricPrecision" shape-rendering="geometricPrecision" stroke="rgb(51,102,255)" stroke-width="4" stroke-miterlimit="1.45">
      <rect x="728.2235" y="308.9324" clip-path="url(#clipPath2)" fill="none" width="125.3219" rx="4" ry="4" height="94.464"/>
    </g>
    <g font-size="14px" stroke-linecap="butt" transform="matrix(1,0,0,1,-25,-171)" text-rendering="geometricPrecision" font-family="sans-serif" shape-rendering="geometricPrecision" font-weight="bold" stroke-miterlimit="1.45">
      <text x="740.4352" xml:space="preserve" y="361.4554" clip-path="url(#clipPath2)" stroke="none">Training Loop</text>
    </g>
    <g fill="rgb(226,229,255)" text-rendering="geometricPrecision" shape-rendering="geometricPrecision" transform="matrix(1,0,0,1,-25,-171)" stroke="rgb(226,229,255)">
      <rect x="442.6271" y="483.4452" clip-path="url(#clipPath2)" width="165.7749" rx="4" ry="4" height="30.0899" stroke="none"/>
    </g>
    <g stroke-linecap="butt" transform="matrix(1,0,0,1,-25,-171)" fill="rgb(153,204,255)" text-rendering="geometricPrecision" shape-rendering="geometricPrecision" stroke="rgb(153,204,255)" stroke-width="4" stroke-miterlimit="1.45">
      <rect x="442.6271" y="483.4452" clip-path="url(#clipPath2)" fill="none" width="165.7749" rx="4" ry="4" height="30.0899"/>
    </g>
    <g font-size="14px" stroke-linecap="butt" transform="matrix(1,0,0,1,-25,-171)" text-rendering="geometricPrecision" font-family="sans-serif" shape-rendering="geometricPrecision" font-weight="bold" stroke-miterlimit="1.45">
      <text x="496.4139" xml:space="preserve" y="502.9804" clip-path="url(#clipPath2)" stroke="none">Sampler</text>
    </g>
    <g fill="rgb(255,204,153)" text-rendering="geometricPrecision" shape-rendering="geometricPrecision" transform="matrix(1,0,0,1,-25,-171)" stroke="rgb(255,204,153)">
      <rect x="899.6396" y="426.4072" clip-path="url(#clipPath2)" width="125.3219" rx="4" ry="4" height="36.6121" stroke="none"/>
    </g>
    <g stroke-linecap="butt" transform="matrix(1,0,0,1,-25,-171)" fill="rgb(255,153,0)" text-rendering="geometricPrecision" shape-rendering="geometricPrecision" stroke="rgb(255,153,0)" stroke-width="4" stroke-miterlimit="1.45">
      <rect x="899.6396" y="426.4072" clip-path="url(#clipPath2)" fill="none" width="125.3219" rx="4" ry="4" height="36.6121"/>
    </g>
    <g font-size="14px" stroke-linecap="butt" transform="matrix(1,0,0,1,-25,-171)" text-rendering="geometricPrecision" font-family="sans-serif" shape-rendering="geometricPrecision" font-weight="bold" stroke-miterlimit="1.45">
      <text x="926.3025" xml:space="preserve" y="450.0042" clip-path="url(#clipPath2)" stroke="none">Optimizer</text>
    </g>
    <g fill="rgb(155,206,99)" text-rendering="geometricPrecision" shape-rendering="geometricPrecision" transform="matrix(1,0,0,1,-25,-171)" stroke="rgb(155,206,99)">
      <rect x="728.2235" y="426.4072" clip-path="url(#clipPath2)" width="125.3219" rx="4" ry="4" height="36.6121" stroke="none"/>
    </g>
    <g stroke-linecap="butt" transform="matrix(1,0,0,1,-25,-171)" fill="rgb(51,153,102)" text-rendering="geometricPrecision" shape-rendering="geometricPrecision" stroke="rgb(51,153,102)" stroke-width="4" stroke-miterlimit="1.45">
      <rect x="728.2235" y="426.4072" clip-path="url(#clipPath2)" fill="none" width="125.3219" rx="4" ry="4" height="36.6121"/>
    </g>
    <g font-size="14px" stroke-linecap="butt" transform="matrix(1,0,0,1,-25,-171)" text-rendering="geometricPrecision" font-family="sans-serif" shape-rendering="geometricPrecision" font-weight="bold" stroke-miterlimit="1.45">
      <text x="755.6657" xml:space="preserve" y="450.0042" clip-path="url(#clipPath2)" stroke="none">Scheduler</text>
    </g>
    <g text-rendering="geometricPrecision" stroke-miterlimit="1.45" stroke-width="4" shape-rendering="geometricPrecision" transform="matrix(1,0,0,1,-25,-171)" stroke-linecap="butt">
      <path fill="none" d="M115.1126 211.2073 L40.6525 211.2073 L40.6525 384.5 L88.3773 384.5" clip-path="url(#clipPath2)"/>
      <path d="M99.3773 384.5 L82.8773 377.625 L87.0023 384.5 L82.8773 391.375 Z" clip-path="url(#clipPath2)" stroke="none"/>
      <path fill="none" d="M223.3775 384.5 L273.5392 384.5" clip-path="url(#clipPath2)"/>
      <path d="M284.5392 384.5 L268.0392 377.625 L272.1642 384.5 L268.0392 391.375 Z" clip-path="url(#clipPath2)" stroke="none"/>
      <path fill="none" d="M381.4677 384.6039 L431.6243 384.7114" clip-path="url(#clipPath2)"/>
      <path d="M442.6243 384.735 L426.1391 377.8246 L430.2493 384.7084 L426.1096 391.5746 Z" clip-path="url(#clipPath2)" stroke="none"/>
      <path fill="none" d="M608.4013 384.8144 L683.0099 384.7259" clip-path="url(#clipPath2)"/>
      <path d="M694.0099 384.7129 L677.5018 377.8575 L681.6349 384.7275 L677.5181 391.6075 Z" clip-path="url(#clipPath2)" stroke="none"/>
      <path fill="none" d="M873.5454 482.5412 L873.5454 501.5249" clip-path="url(#clipPath2)"/>
      <path d="M873.5454 512.5249 L880.4204 496.0249 L873.5454 500.1499 L866.6704 496.0249 Z" clip-path="url(#clipPath2)" stroke="none"/>
      <path fill="none" d="M899.6523 376.2354 L864.5337 376.2354" clip-path="url(#clipPath2)"/>
      <path d="M853.5337 376.2354 L870.0337 383.1104 L865.9087 376.2354 L870.0337 369.3604 Z" clip-path="url(#clipPath2)" stroke="none"/>
      <path fill="none" d="M853.5259 331.3707 L888.6569 331.3707" clip-path="url(#clipPath2)"/>
      <path d="M899.6569 331.3707 L883.1569 324.4957 L887.2819 331.3707 L883.1569 338.2457 Z" clip-path="url(#clipPath2)" stroke="none"/>
      <path fill="none" d="M525.5145 483.4333 L525.5145 456.3817" clip-path="url(#clipPath2)"/>
      <path d="M525.5145 445.3817 L518.6395 461.8817 L525.5145 457.7567 L532.3895 461.8817 Z" clip-path="url(#clipPath2)" stroke="none"/>
      <path fill="none" d="M962.3005 426.4241 L962.3005 414.4044" clip-path="url(#clipPath2)"/>
      <path d="M962.3005 403.4044 L955.4255 419.9044 L962.3005 415.7794 L969.1755 419.9044 Z" clip-path="url(#clipPath2)" stroke="none"/>
      <path fill="none" d="M888.6517 444.7132 L853.5265 444.7132" clip-path="url(#clipPath2)"/>
      <path d="M899.6517 444.7132 L883.1517 437.8382 L887.2767 444.7132 L883.1517 451.5882 Z" clip-path="url(#clipPath2)" stroke="none"/>
    </g>
  </g>
</svg>
